<?xml version="1.0" standalone="no"?>
<!DOCTYPE svg PUBLIC "-//W3C//DTD SVG 20010904//EN"
 "http://www.w3.org/TR/2001/REC-SVG-20010904/DTD/svg10.dtd">
<svg version="1.0" xmlns="http://www.w3.org/2000/svg"
 width="850.000000pt" height="850.000000pt" viewBox="0 0 850.000000 850.000000"
 preserveAspectRatio="xMidYMid meet">
<metadata>
Created by potrace 1.14, written by Peter Selinger 2001-2017
</metadata>
<g transform="translate(0.000000,850.000000) scale(0.100000,-0.100000)"
fill="#000000" stroke="none">
<path d="M1565 7778 c-53 -7 -131 -34 -153 -52 -35 -29 -92 -90 -92 -100 0 -3
-5 -17 -12 -33 -16 -39 -18 -51 -23 -103 -2 -25 -4 -47 -5 -50 -1 -3 -1 -9 0
-15 1 -5 4 -30 5 -55 4 -50 12 -102 20 -131 3 -10 7 -27 10 -37 4 -14 -9 -28
-52 -58 -73 -49 -203 -164 -203 -178 0 -2 -15 -20 -34 -39 -18 -19 -48 -57
-67 -83 -18 -27 -36 -50 -41 -52 -4 -2 -8 -8 -8 -14 0 -5 -10 -23 -21 -40 -20
-28 -23 -29 -32 -12 -42 75 -121 135 -197 150 -156 30 -292 -38 -366 -183 -27
-54 -29 -66 -28 -164 0 -58 4 -114 9 -125 4 -10 9 -25 11 -33 1 -8 6 -26 10
-40 4 -14 7 -29 6 -33 -1 -5 3 -8 10 -8 6 0 8 -3 5 -6 -8 -8 24 -56 67 -102
59 -64 202 -145 269 -151 4 -1 7 -34 6 -73 0 -40 0 -75 1 -78 1 -3 3 -19 5
-37 4 -35 29 -128 47 -171 6 -15 12 -29 12 -32 4 -16 32 -70 37 -70 3 0 6 -6
6 -13 0 -12 93 -157 117 -183 6 -7 31 -36 56 -65 41 -49 76 -86 240 -258 83
-86 170 -183 170 -187 0 -3 9 -14 19 -26 19 -19 19 -48 0 -48 -5 0 -9 -5 -9
-11 0 -6 -12 -29 -27 -52 -47 -72 -52 -80 -79 -137 -32 -68 -36 -129 -8 -157
10 -11 51 -38 89 -61 39 -22 80 -48 92 -59 12 -10 29 -22 37 -28 14 -9 11 -23
-32 -120 -48 -107 -64 -145 -67 -155 -31 -115 -54 -180 -64 -180 -3 0 -33 -25
-66 -55 -32 -30 -66 -55 -73 -55 -22 0 -8 -52 38 -147 l40 -81 -19 -50 c-11
-27 -17 -53 -14 -56 4 -3 0 -6 -7 -6 -7 0 -11 -3 -8 -6 5 -4 -42 -149 -69
-214 -3 -8 -7 -20 -9 -27 -3 -14 -62 -180 -75 -208 -5 -11 -22 -58 -39 -105
-17 -47 -37 -98 -44 -115 -7 -16 -19 -46 -26 -65 -7 -19 -24 -59 -37 -88 -12
-29 -23 -59 -23 -67 0 -8 -4 -15 -10 -15 -5 0 -10 -6 -10 -13 0 -12 -30 -84
-99 -241 -28 -64 -34 -80 -33 -88 1 -5 -3 -8 -8 -8 -6 0 -10 -4 -10 -9 0 -16
-60 -141 -68 -141 -149 -6 -171 -9 -233 -38 -92 -43 -164 -131 -172 -212 -2
-16 -6 -33 -9 -36 -8 -7 1 -70 19 -134 21 -76 65 -154 117 -206 43 -42 173
-114 207 -114 8 0 19 -3 23 -7 7 -7 11 -8 81 -19 78 -12 279 -11 328 2 26 7
48 12 50 11 4 -1 102 37 107 42 3 4 25 17 50 31 25 13 54 32 64 42 11 10 35
28 53 40 17 13 38 33 44 45 7 13 17 23 23 23 6 0 20 14 31 30 11 16 23 30 28
30 4 0 7 6 7 13 0 7 9 18 20 25 11 7 20 19 20 27 0 8 3 15 8 15 4 0 17 15 28
33 50 75 91 143 91 151 1 5 5 12 10 15 8 6 16 20 72 131 18 36 37 72 42 80 5
8 14 26 19 40 6 14 17 37 25 52 8 14 15 33 15 42 0 9 5 16 10 16 6 0 10 6 10
13 0 8 6 27 14 43 24 49 74 164 81 184 1 3 7 17 13 33 7 15 17 39 24 55 6 15
11 30 10 35 -1 4 3 7 8 7 5 0 9 3 8 8 -1 8 5 24 33 89 11 23 19 47 19 52 0 13
27 15 34 2 3 -4 31 -16 63 -25 71 -20 82 -26 86 -51 2 -11 13 -42 26 -70 13
-27 24 -54 25 -60 2 -5 12 -30 23 -55 11 -25 23 -55 27 -67 4 -13 11 -23 16
-23 4 0 11 -16 14 -35 4 -19 11 -35 16 -35 6 0 10 -6 10 -14 0 -16 153 -318
181 -358 11 -15 17 -28 12 -28 -4 0 -3 -4 2 -8 6 -4 19 -23 29 -42 11 -19 46
-75 78 -124 32 -49 58 -92 58 -96 0 -4 7 -10 15 -14 8 -3 15 -12 15 -20 0 -8
6 -19 13 -23 7 -4 24 -24 37 -43 30 -44 169 -183 235 -237 61 -48 154 -111
215 -144 25 -13 47 -26 50 -29 6 -7 97 -44 200 -82 26 -10 114 -32 133 -34 9
-1 18 -2 20 -4 7 -5 51 -11 132 -16 56 -4 106 -13 132 -25 23 -10 44 -19 47
-19 2 0 17 -5 33 -12 32 -13 49 -18 80 -23 11 -1 31 -6 43 -10 34 -11 119 -24
195 -30 28 -2 50 -4 50 -5 0 -3 86 -9 195 -14 63 -3 125 -8 138 -10 12 -3 22
0 22 5 0 6 6 7 12 3 7 -5 55 -9 108 -10 103 -3 249 -10 400 -20 52 -4 110 -8
128 -9 18 -1 35 -5 39 -8 3 -4 12 -2 20 4 7 6 13 8 13 3 0 -5 19 -9 43 -10 23
0 74 -4 112 -8 39 -4 88 -9 110 -11 40 -4 101 -11 165 -21 19 -3 51 -7 70 -9
19 -2 36 -4 38 -5 3 -4 12 -5 72 -14 30 -4 64 -10 75 -12 11 -3 47 -7 80 -9
33 -3 69 -6 80 -8 11 -2 23 1 27 7 6 8 8 8 8 -1 0 -6 8 -10 18 -8 9 2 40 6 67
9 75 6 175 34 224 63 47 28 60 39 109 98 l32 40 93 2 c50 1 99 3 107 5 70 18
131 41 144 53 8 9 17 14 19 13 7 -5 62 45 89 82 15 19 30 47 33 63 4 15 12 27
19 28 45 2 83 11 103 24 25 17 55 59 61 84 6 29 12 86 14 129 1 23 4 42 6 42
8 0 146 -72 160 -82 6 -6 12 -7 12 -4 0 4 13 -2 29 -13 16 -12 31 -21 34 -21
3 0 38 -15 79 -34 156 -73 207 -78 280 -28 46 32 78 66 78 82 0 6 4 10 8 10 5
0 15 12 23 28 8 15 18 30 22 33 5 3 9 12 11 20 1 8 8 24 15 37 18 33 41 99 55
158 11 43 12 88 4 182 -1 6 -5 12 -10 12 -4 0 -8 5 -8 11 0 18 -60 89 -76 89
-8 0 -14 4 -14 8 0 13 -77 35 -129 38 -58 3 -111 -19 -150 -62 -17 -19 -29
-34 -26 -34 3 0 -2 -12 -12 -27 -9 -14 -19 -31 -20 -37 -18 -69 -31 -141 -27
-148 3 -4 1 -8 -4 -8 -4 0 -8 -22 -7 -50 1 -27 0 -50 -2 -50 -2 0 -32 9 -66
20 -55 17 -108 27 -159 29 -22 1 -23 24 -2 45 8 9 13 16 9 16 -3 0 0 10 7 23
7 12 13 24 13 27 0 3 11 35 23 71 13 37 25 78 27 90 3 13 9 46 14 74 10 54 8
252 -3 300 -18 78 -40 151 -56 190 -5 11 -19 45 -32 75 -12 30 -37 84 -56 120
-19 36 -50 97 -70 135 -19 39 -39 73 -44 76 -5 3 -10 15 -13 26 -4 24 -34 74
-50 85 -5 4 -6 8 -2 8 4 0 -6 25 -24 56 l-31 56 23 16 c13 10 26 19 29 22 11
8 62 92 64 104 1 6 4 16 8 21 8 14 26 83 32 125 3 19 8 46 11 60 3 14 5 70 6
124 0 98 1 101 32 136 69 79 80 95 97 143 10 27 16 62 15 78 -3 34 -24 89 -35
89 -4 0 -19 11 -34 25 -20 19 -25 29 -18 42 5 10 9 37 9 61 0 23 2 45 6 48 3
3 1 19 -4 36 -4 17 -8 33 -7 37 3 14 -60 126 -80 141 -29 22 -64 111 -67 170
-2 30 -4 55 -5 55 -1 0 -3 14 -5 30 -5 52 -13 93 -18 103 -3 4 22 9 56 10 79
2 187 33 187 54 0 5 6 8 14 8 8 0 16 7 20 15 3 8 13 15 21 15 9 0 13 -4 10
-10 -3 -5 -2 -10 3 -10 6 0 13 -12 16 -26 7 -27 19 -45 50 -72 10 -9 24 -23
32 -30 8 -7 25 -15 39 -18 20 -4 27 1 36 23 17 45 68 120 116 171 60 63 92
127 88 176 -4 35 -44 118 -69 141 -34 31 -57 66 -62 91 -9 44 -9 44 -30 99 -4
11 -8 22 -8 25 -3 16 -52 100 -58 100 -5 0 -8 5 -8 11 0 18 -73 81 -117 101
-24 10 -60 19 -80 18 -21 0 -45 0 -53 0 -33 1 -76 -7 -98 -19 -12 -6 -22 -8
-22 -4 0 4 -5 2 -12 -5 -7 -7 -20 -12 -30 -12 -9 0 -22 -8 -27 -17 -6 -10 -11
-14 -11 -10 0 14 -62 -34 -118 -93 -47 -48 -75 -86 -129 -175 -21 -34 -66
-134 -67 -150 -1 -5 -15 -9 -31 -7 -17 1 -64 5 -105 8 -41 4 -76 7 -78 9 -2 1
4 33 12 71 16 75 16 80 16 169 0 77 -9 139 -21 143 -5 2 -7 8 -4 13 8 12 -48
173 -57 163 -3 -3 -11 11 -18 31 -13 41 -140 175 -165 175 -9 0 -18 7 -21 15
-4 8 -15 15 -25 15 -10 0 -19 4 -19 8 0 5 -31 21 -70 38 -38 16 -70 32 -70 37
0 4 -6 7 -14 7 -20 0 -118 54 -195 107 -65 45 -101 60 -101 42 0 -5 -6 -9 -13
-9 -29 0 -84 -91 -92 -151 -3 -19 -7 -45 -10 -59 -11 -54 -5 -274 11 -360 2
-14 7 -47 10 -73 3 -26 15 -80 25 -120 11 -40 20 -78 21 -84 1 -7 6 -13 11
-13 6 0 8 -3 4 -6 -6 -6 22 -62 65 -129 26 -41 136 -155 149 -155 4 0 14 -6
21 -13 7 -7 43 -26 80 -42 l67 -29 -24 -42 c-13 -23 -21 -45 -18 -48 4 -3 1
-6 -5 -6 -7 0 -11 -3 -10 -7 1 -5 -8 -39 -20 -78 -12 -38 -24 -88 -27 -110
-12 -81 -26 -111 -72 -161 -80 -86 -102 -127 -109 -202 -3 -31 -7 -59 -10 -61
-2 -2 0 -9 6 -15 5 -7 11 -32 13 -56 3 -25 10 -65 17 -90 7 -25 12 -46 11 -47
0 -2 7 -20 16 -40 23 -57 31 -77 31 -87 0 -5 4 -12 9 -15 14 -10 42 -70 35
-75 -4 -2 -27 -7 -52 -12 -25 -4 -47 -8 -50 -9 -3 -1 -22 -5 -44 -10 -39 -8
-130 -39 -199 -69 l-37 -16 -28 46 c-84 142 -212 294 -353 418 -30 26 -40 40
-30 44 7 2 22 13 32 23 11 11 22 19 26 19 9 0 100 96 133 139 14 19 33 42 43
52 9 11 14 19 10 19 -3 0 0 8 8 18 23 28 59 98 59 116 0 9 4 16 8 16 6 0 30
66 38 105 1 6 7 33 14 60 6 28 14 70 18 95 11 79 5 370 -8 370 -3 0 -5 14 -4
31 1 36 -34 188 -65 279 -59 173 -170 356 -293 478 -57 58 -67 72 -47 67 14
-3 32 -7 40 -9 15 -3 67 -23 79 -31 4 -2 15 1 24 8 17 12 17 17 -7 77 -1 2 23
5 53 7 61 4 116 25 143 56 20 24 19 21 22 77 6 126 -106 165 -248 87 -74 -41
-109 -49 -63 -15 39 29 106 97 106 108 0 5 4 10 8 12 5 2 23 33 40 69 37 78
51 162 39 239 -4 30 -8 63 -8 72 0 10 -4 20 -10 23 -5 4 -9 13 -9 22 0 15 -29
84 -39 93 -4 3 -12 16 -19 30 -16 31 -69 90 -80 90 -5 0 -17 9 -27 20 -10 11
-24 20 -32 20 -7 0 -13 4 -13 8 0 9 -58 31 -95 36 -44 7 -159 -52 -171 -87 -3
-10 -8 -16 -12 -13 -5 6 -22 -19 -41 -62 -9 -19 -14 -21 -31 -12 -11 6 -20 15
-20 19 0 5 -11 12 -25 15 -14 4 -25 11 -25 16 0 6 -4 10 -9 10 -5 0 -22 5 -38
12 -42 17 -55 18 -94 8 -28 -8 -41 -19 -55 -48 -42 -88 -48 -187 -18 -292 18
-61 73 -183 86 -188 14 -6 9 -32 -6 -32 -8 0 -21 -2 -29 -5 -9 -4 -32 18 -65
62 -29 37 -56 73 -62 80 -5 7 -10 17 -10 23 0 5 -4 10 -9 10 -5 0 -14 13 -21
30 -7 16 -16 27 -21 24 -5 -3 -9 0 -9 7 0 16 -72 89 -82 83 -4 -3 -8 0 -8 5 0
12 -32 14 -79 5 -21 -4 -31 -12 -31 -25 0 -27 21 -35 39 -13 25 30 53 27 92
-8 41 -38 109 -122 109 -135 0 -5 8 -18 18 -29 9 -11 38 -47 64 -81 42 -55 45
-63 28 -68 -41 -13 -91 -13 -105 1 -7 8 -18 14 -23 14 -6 0 -30 18 -54 40 -23
22 -51 42 -60 45 -10 4 -18 10 -18 15 0 26 -161 36 -195 12 -15 -10 -13 -31 4
-42 10 -6 20 -1 33 15 14 18 27 23 63 22 25 0 50 -6 56 -14 6 -7 14 -11 18 -8
4 2 22 -9 40 -25 18 -17 34 -30 37 -30 2 0 13 -8 23 -17 51 -46 77 -58 130
-58 31 0 35 -3 36 -28 1 -15 7 -38 14 -50 15 -27 83 -72 111 -72 11 0 42 -24
70 -53 48 -51 49 -53 28 -61 -93 -36 -115 -46 -128 -57 -8 -7 -19 -13 -23 -13
-15 0 -114 -86 -133 -115 -27 -42 -60 -100 -62 -108 -1 -5 -2 -9 -3 -10 -20
-67 -12 -255 11 -278 3 -3 12 -17 20 -32 14 -26 140 -169 208 -236 44 -43 58
-129 38 -232 -2 -14 -5 -34 -5 -45 -2 -38 -17 -47 -84 -52 l-65 -5 2 39 c3 45
-8 90 -30 118 -13 18 -28 20 -127 22 -62 1 -123 4 -137 7 -14 3 -36 7 -50 10
-14 3 -41 9 -60 12 -19 4 -62 17 -96 31 l-61 24 0 43 c-1 72 -30 112 -135 188
-21 16 -42 28 -48 28 -13 0 -12 6 1 54 6 21 12 48 15 60 2 11 9 45 15 74 6 30
13 73 15 95 3 23 7 62 11 87 9 66 8 368 -2 420 -4 25 -9 56 -10 70 -2 14 -4
25 -5 25 -1 0 -3 4 -13 55 -15 70 -48 165 -74 211 -49 92 -112 142 -248 200
-21 9 -124 37 -165 45 -14 3 -59 12 -100 21 -41 8 -84 17 -95 19 -21 3 -39 7
-90 19 -35 9 -73 48 -81 84 -3 14 -9 35 -12 46 -4 11 -7 25 -8 30 -1 6 -3 13
-4 18 -1 4 -3 15 -4 25 -2 9 -8 37 -16 62 -7 25 -13 48 -12 53 1 4 -3 7 -9 7
-5 0 -7 5 -4 10 3 6 1 10 -4 10 -6 0 -11 7 -11 16 0 18 -13 33 -53 58 -20 14
-51 19 -120 22 -50 1 -92 3 -92 4 0 11 -829 16 -922 6 -60 -6 -62 -6 -57 16 2
13 7 37 10 53 26 131 -20 247 -121 301 -66 36 -125 45 -210 32z"/>
</g>
</svg>
